# xmcd
#
# Track frame offsets:
#	150
#	18195
#	33145
#	51600
#	66517
#	85290
#	100230
#	114702
#	128270
#	144687
#	163317
#	183037
#	206332
#	220047
#
# Disc length: 3165 seconds
#
# Revision: 0
# Processed by: cddbd v1.4PL0 Copyright (c) Steve Scherf et al.
# Submitted via: dBpowerAMP V4.0
#
DISCID=c20c5b0e
DTITLE=Rosa Maria - Rosa In Blues
DYEAR=1990
DGENRE=Blues
TTITLE0=Rosa In Blues
TTITLE1=Faz-Me Rir (Me Dá Risa)
TTITLE2=Blues da Moto
TTITLE3=Molambo
TTITLE4=Marco
TTITLE5=Black-Tie
TTITLE6=Smoke Gets In Your Eyes
TTITLE7=Dilema
TTITLE8=E Agora?
TTITLE9=Amor e Ódio
TTITLE10=Sophisticated Lady
TTITLE11=Vozes E Tons
TTITLE12=Faça a Coisa Esperta
TTITLE13=Cantei Um Blues
EXTD=
EXTT0=
EXTT1=
EXTT2=
EXTT3=
EXTT4=
EXTT5=
EXTT6=
EXTT7=
EXTT8=
EXTT9=
EXTT10=
EXTT11=
EXTT12=
EXTT13=
PLAYORDER=
